<?xml version="1.0" encoding="utf-8"?>
<!-- Generator: Adobe Illustrator 24.1.0, SVG Export Plug-In . SVG Version: 6.00 Build 0)  -->
<svg version="1.1" id="Layer_1" xmlns="http://www.w3.org/2000/svg" xmlns:xlink="http://www.w3.org/1999/xlink" x="0px" y="0px"
	 viewBox="0 0 199 52" style="enable-background:new 0 0 199 52;" xml:space="preserve">
<style type="text/css">
	.st0{enable-background:new    ;}
	.st1{fill:#001639;}
</style>
<g class="st0">
	<path class="st1" d="M30.6,32.5c0.3,0,0.5,0.1,0.7,0.3c0.2,0.2,0.2,0.5,0.2,0.9c0,0.6-0.1,1.1-0.4,1.5c-0.3,0.4-0.8,0.8-1.4,1.1
		c-1.1,0.5-2.6,1-4.4,1.3c-1.8,0.3-3.6,0.5-5.4,0.5c-2.4,0-4.5-0.3-6.1-0.8c-1.6-0.6-2.9-1.3-3.7-2.3c-0.8-1-1.2-2.1-1.2-3.3
		c0-1.7,0.5-3.1,1.6-4.2c1.1-1.2,2.7-2,4.7-2.5c-1.1-0.3-2-0.9-2.6-1.7s-0.9-1.8-0.9-2.8c0-1.4,0.4-2.6,1.3-3.7
		c0.9-1.1,2.1-1.9,3.6-2.5s3.1-0.9,4.9-0.9c2.4,0,4.2,0.5,5.4,1.6s1.8,2.4,1.8,4c0,1.1-0.2,2.1-0.6,2.8c-0.4,0.7-1,1.1-1.8,1.1
		c-0.5,0-1-0.1-1.3-0.4c-0.3-0.2-0.5-0.6-0.5-1.1c0-0.3,0-0.7,0.1-1.1c0.1-0.6,0.1-1.1,0.1-1.3c0-0.7-0.3-1.3-0.8-1.7
		c-0.5-0.4-1.4-0.7-2.6-0.7c-1.6,0-3,0.3-3.9,1c-1,0.7-1.5,1.6-1.5,2.8c0,0.9,0.4,1.7,1.1,2.2c0.7,0.6,2,0.9,3.6,1
		c0.4,0,0.7,0.1,0.9,0.3c0.2,0.2,0.3,0.5,0.3,0.9c0,1.3-0.6,1.9-1.7,1.9c-1.6,0-2.9,0.3-4,0.7c-1.1,0.4-1.8,0.9-2.3,1.6
		c-0.5,0.6-0.7,1.3-0.7,2c0,1.2,0.6,2.1,1.7,2.7c1.1,0.6,2.9,0.9,5.3,0.9c1.6,0,3.3-0.2,5.1-0.6s3.3-0.8,4.6-1.4
		C30.2,32.6,30.4,32.5,30.6,32.5z"/>
	<path class="st1" d="M44.1,32c0.1,0.2,0.2,0.5,0.2,0.9c0,0.4-0.1,0.8-0.2,1c-0.1,0.3-0.3,0.5-0.6,0.7c-1.7,1.1-2.9,2-3.7,2.5
		L38,38.3c-0.7,4-1.7,7.1-2.9,9.4s-2.7,3.4-4.5,3.4c-1,0-1.8-0.3-2.4-0.9c-0.6-0.6-0.9-1.4-0.9-2.4c0-1.4,0.5-2.8,1.6-4.4
		C30,41.9,32,40,35,37.7l0.2-1.1c-0.3,0.5-0.8,0.9-1.3,1.2c-0.5,0.3-1.1,0.4-1.6,0.4c-1.2,0-2.2-0.4-2.9-1.3s-1.1-2-1.1-3.4
		c0-1.5,0.4-3,1.1-4.4c0.7-1.4,1.7-2.5,2.9-3.3s2.5-1.3,3.8-1.3c0.4,0,0.7,0.1,0.9,0.2s0.3,0.5,0.4,0.9c0.4-0.1,0.8-0.1,1.3-0.1
		c0.5,0,0.8,0.1,1,0.2c0.2,0.1,0.3,0.4,0.3,0.9c0,0.2,0,0.4,0,0.6c-0.1,0.6-0.3,2.1-0.7,4.6c-0.1,0.5-0.2,1-0.2,1.5
		s-0.2,1.1-0.3,1.8c1.5-1.2,2.9-2.2,4.3-3.1c0.3-0.2,0.5-0.2,0.7-0.2C43.8,31.6,44,31.7,44.1,32z M32.5,46.6c0.6-1.2,1.2-3,1.8-5.5
		c-1.5,1.3-2.6,2.4-3.2,3.5c-0.7,1-1,1.9-1,2.7c0,0.3,0.1,0.6,0.2,0.8c0.1,0.2,0.3,0.3,0.6,0.3C31.4,48.4,31.9,47.8,32.5,46.6z
		 M34.6,34.4c0.4-0.5,0.7-1.3,0.9-2.3l0.9-5c-0.8,0-1.5,0.3-2.2,0.9c-0.7,0.6-1.2,1.4-1.6,2.3c-0.4,1-0.6,2-0.6,3.1
		c0,0.6,0.1,1,0.4,1.3s0.6,0.4,1,0.4C33.8,35.2,34.2,34.9,34.6,34.4z"/>
	<path class="st1" d="M57.7,32c0.1,0.2,0.2,0.5,0.2,0.9c0,0.4-0.1,0.8-0.2,1c-0.1,0.3-0.3,0.5-0.6,0.7c-1.7,1.1-2.9,2-3.7,2.5
		l-1.9,1.2c-0.7,4-1.7,7.1-2.9,9.4s-2.7,3.4-4.5,3.4c-1,0-1.8-0.3-2.4-0.9c-0.6-0.6-0.9-1.4-0.9-2.4c0-1.4,0.5-2.8,1.6-4.4
		c1.1-1.6,3.1-3.5,6.1-5.8l0.2-1.1c-0.3,0.5-0.8,0.9-1.3,1.2c-0.5,0.3-1.1,0.4-1.6,0.4c-1.2,0-2.2-0.4-2.9-1.3s-1.1-2-1.1-3.4
		c0-1.5,0.4-3,1.1-4.4c0.7-1.4,1.7-2.5,2.9-3.3s2.5-1.3,3.8-1.3c0.4,0,0.7,0.1,0.9,0.2s0.3,0.5,0.4,0.9c0.4-0.1,0.8-0.1,1.3-0.1
		c0.5,0,0.8,0.1,1,0.2c0.2,0.1,0.3,0.4,0.3,0.9c0,0.2,0,0.4,0,0.6c-0.1,0.6-0.3,2.1-0.7,4.6c-0.1,0.5-0.2,1-0.2,1.5
		s-0.2,1.1-0.3,1.8c1.5-1.2,2.9-2.2,4.3-3.1c0.3-0.2,0.5-0.2,0.7-0.2C57.4,31.6,57.6,31.7,57.7,32z M46.1,46.6
		c0.6-1.2,1.2-3,1.8-5.5c-1.5,1.3-2.6,2.4-3.2,3.5c-0.7,1-1,1.9-1,2.7c0,0.3,0.1,0.6,0.2,0.8c0.1,0.2,0.3,0.3,0.6,0.3
		C45,48.4,45.5,47.8,46.1,46.6z M48.2,34.4c0.4-0.5,0.7-1.3,0.9-2.3l0.9-5c-0.8,0-1.5,0.3-2.2,0.9c-0.7,0.6-1.2,1.4-1.6,2.3
		c-0.4,1-0.6,2-0.6,3.1c0,0.6,0.1,1,0.4,1.3s0.6,0.4,1,0.4C47.4,35.2,47.8,34.9,48.2,34.4z"/>
	<path class="st1" d="M58.7,38.1c-0.5-0.5-0.8-1-0.8-1.6c0-0.5,0.2-0.9,0.6-1.3s0.9-0.6,1.6-0.6c0.3,0,0.5,0,0.9,0.1
		c0.3,0,0.6,0.1,0.8,0.1c0-0.5-0.1-1-0.3-1.4c-0.2-0.4-0.5-0.9-0.8-1.3c-0.3-0.4-0.6-0.8-0.9-1.1c-0.6,1.1-1.2,2.1-1.8,2.8
		s-1.2,1.5-1.9,2.1c-0.3,0.3-0.7,0.5-1.1,0.5c-0.3,0-0.6-0.1-0.8-0.3c-0.2-0.2-0.3-0.5-0.3-0.8c0-0.4,0.1-0.7,0.4-1.1l0.4-0.5
		c1.1-1.3,1.9-2.4,2.4-3.2c0.3-0.6,0.7-1.3,1.2-2.2c0.4-0.9,0.9-1.9,1.3-2.9c0.4-0.9,1.1-1.3,2.3-1.3c0.5,0,0.9,0,1.1,0.1
		c0.2,0.1,0.3,0.3,0.3,0.5c0,0.1,0,0.3-0.1,0.6c-0.1,0.3-0.2,0.5-0.3,0.8c-0.3,0.7-0.5,1.3-0.5,1.8c0,0.3,0.1,0.6,0.3,1
		c0.2,0.3,0.5,0.8,0.9,1.3c0.6,0.8,1.1,1.5,1.4,2.1s0.5,1.2,0.5,1.9c0,0.2,0,0.5-0.1,0.8c0.9-0.4,2.1-1.3,3.3-2.9
		c0.2-0.3,0.5-0.4,0.8-0.4c0.3,0,0.4,0.1,0.6,0.3c0.1,0.2,0.2,0.6,0.2,1c0,0.7-0.2,1.3-0.6,1.8c-1,1.2-1.9,2-2.8,2.5
		c-0.9,0.4-2,0.7-3.3,0.7c-0.8,0.7-1.7,1-2.8,1C60,38.8,59.2,38.6,58.7,38.1z"/>
	<path class="st1" d="M69.9,36.8c-1.5-1-2.3-2.5-2.3-4.5c0-1.1,0.2-1.9,0.6-2.4c0.4-0.6,0.9-0.8,1.6-0.8c0.5,0,0.9,0.1,1.3,0.4
		c0.3,0.3,0.5,0.6,0.5,1c0,0.4,0,0.7-0.1,1c0,0.1,0,0.2,0,0.4c0,0.2,0,0.4,0,0.6c0,0.9,0.4,1.5,1.3,1.9c0.9,0.4,2.1,0.6,3.7,0.6
		c1.6,0,2.9-0.3,3.9-0.9c0.9-0.6,1.4-1.4,1.4-2.5c0-0.7-0.2-1.2-0.6-1.7s-1-0.9-1.6-1.2c-0.6-0.3-1.5-0.7-2.7-1.2
		c-1.5-0.6-2.7-1.1-3.6-1.7c-0.9-0.5-1.7-1.2-2.4-2.1c-0.7-0.9-1-2-1-3.3c0-1.4,0.4-2.6,1.1-3.7c0.7-1.1,1.8-1.9,3.2-2.5
		s3-0.9,4.9-0.9c1.4,0,2.7,0.2,3.9,0.6s2.1,1,2.8,1.9c0.7,0.9,1.1,1.9,1.1,3.1c0,1.2-0.2,2.1-0.6,2.8c-0.4,0.6-0.9,0.9-1.6,0.9
		c-0.5,0-0.9-0.2-1.3-0.5c-0.3-0.3-0.5-0.7-0.5-1.1c0-0.4,0-0.7,0.1-1c0.1-0.6,0.1-0.9,0.1-1.1c0-0.8-0.4-1.4-1.2-1.9
		c-0.8-0.4-1.8-0.6-3-0.6c-1.7,0-2.9,0.3-3.8,0.9c-0.9,0.6-1.3,1.5-1.3,2.6c0,0.7,0.2,1.4,0.7,1.9c0.5,0.5,1,1,1.7,1.3
		s1.6,0.8,2.8,1.2c1.5,0.6,2.6,1.1,3.5,1.6c0.9,0.5,1.6,1.1,2.3,2c0.6,0.8,0.9,1.9,0.9,3.1c0,2.3-0.9,4-2.6,5.3
		c-1.7,1.2-4,1.8-6.9,1.8C73.5,38.2,71.5,37.7,69.9,36.8z"/>
	<path class="st1" d="M104.5,31.9c0.1,0.2,0.2,0.6,0.2,1c0,0.8-0.2,1.4-0.6,1.8c-0.9,1-1.8,1.9-2.7,2.5c-0.9,0.7-2,1-3.2,1
		c-1,0-1.7-0.3-2.2-0.9c-0.5-0.6-0.8-1.4-0.8-2.5c0-0.5,0.1-1.5,0.4-2.9c0.3-1.2,0.4-2.1,0.4-2.5c0-0.3-0.1-0.5-0.3-0.5
		c-0.3,0-0.6,0.3-1.1,1s-0.9,1.5-1.4,2.6c-0.5,1.1-0.8,2.2-1.1,3.4c-0.4,1.5-1.3,2.3-2.7,2.3c-0.6,0-1-0.2-1.1-0.6
		C88,37.1,88,36.4,88,35.3c0-0.6,0-1.1,0-1.5l0-2.3c0-3,0.3-6.1,0.9-9.3c0.6-3.2,1.5-5.9,2.7-8.1c1.2-2.2,2.6-3.3,4.3-3.3
		c0.9,0,1.6,0.4,2.2,1.1c0.6,0.8,0.8,1.8,0.8,3c0,2-0.6,4-1.7,6.1s-3,4.5-5.6,7.4c-0.1,1-0.1,2-0.1,3.1c0.6-1.6,1.3-3,2.1-4
		c0.8-1,1.6-1.8,2.3-2.2c0.8-0.4,1.5-0.7,2.1-0.7c1.3,0,1.9,0.6,1.9,1.9c0,0.8-0.2,2.1-0.6,4.1c-0.4,1.7-0.6,2.8-0.6,3.3
		c0,0.8,0.3,1.2,0.8,1.2c0.4,0,0.8-0.2,1.4-0.7c0.5-0.5,1.2-1.2,2.1-2.3c0.2-0.3,0.5-0.4,0.8-0.4C104.2,31.5,104.4,31.6,104.5,31.9z
		 M94.1,15.1c-0.4,1-0.8,2.3-1.2,4c-0.4,1.7-0.7,3.5-1,5.5c1.2-1.4,2.2-2.9,3-4.6c0.8-1.7,1.2-3.2,1.2-4.5c0-0.6-0.1-1.1-0.2-1.4
		c-0.1-0.3-0.3-0.5-0.6-0.5C94.9,13.6,94.6,14.1,94.1,15.1z"/>
	<path class="st1" d="M115.9,31.9c0.1,0.2,0.2,0.6,0.2,1c0,0.8-0.2,1.4-0.6,1.8c-0.7,0.9-1.7,1.7-3,2.4c-1.3,0.7-2.7,1.1-4.2,1.1
		c-2,0-3.6-0.6-4.7-1.7c-1.1-1.1-1.7-2.6-1.7-4.5c0-1.3,0.3-2.6,0.8-3.7c0.6-1.1,1.3-2.1,2.3-2.7s2.1-1,3.4-1c1.1,0,2,0.3,2.7,1
		c0.7,0.7,1,1.6,1,2.7c0,1.3-0.5,2.5-1.4,3.4s-2.6,1.7-4.9,2.3c0.5,0.9,1.4,1.3,2.8,1.3c0.9,0,1.9-0.3,3-0.9
		c1.1-0.6,2.1-1.4,2.9-2.4c0.2-0.3,0.5-0.4,0.8-0.4C115.6,31.5,115.7,31.6,115.9,31.9z M106.2,28.6c-0.5,0.8-0.7,1.8-0.7,3v0.1
		c1.1-0.3,2-0.7,2.7-1.2c0.7-0.5,1-1.2,1-1.9c0-0.4-0.1-0.7-0.3-0.9c-0.2-0.2-0.5-0.3-0.8-0.3C107.3,27.3,106.7,27.7,106.2,28.6z"/>
	<path class="st1" d="M125.3,31.9c0.1,0.2,0.2,0.6,0.2,1c0,0.8-0.2,1.4-0.6,1.8c-0.8,1-1.7,1.9-2.7,2.5s-2.1,1-3.3,1
		c-1.7,0-3-0.8-3.8-2.3s-1.2-3.5-1.2-6c0-2.4,0.3-5,0.9-8.1c0.6-3,1.5-5.6,2.7-7.8c1.2-2.2,2.6-3.2,4.2-3.2c0.9,0,1.7,0.4,2.2,1.3
		c0.5,0.9,0.8,2.1,0.8,3.7c0,2.3-0.6,5-1.9,8c-1.3,3-3,6-5.2,9c0.1,0.8,0.4,1.4,0.7,1.7c0.3,0.3,0.7,0.5,1.2,0.5
		c0.8,0,1.5-0.2,2.1-0.7c0.6-0.5,1.4-1.2,2.3-2.3c0.2-0.3,0.5-0.4,0.8-0.4C125,31.5,125.2,31.6,125.3,31.9z M119.7,16
		c-0.6,1.6-1.1,3.6-1.5,6c-0.4,2.4-0.7,4.7-0.7,6.8c1.4-2.3,2.5-4.5,3.3-6.8c0.8-2.3,1.2-4.3,1.2-6.2c0-1.5-0.3-2.2-0.8-2.2
		C120.7,13.6,120.2,14.4,119.7,16z"/>
	<path class="st1" d="M134.8,31.9c0.1,0.2,0.2,0.6,0.2,1c0,0.8-0.2,1.4-0.6,1.8c-0.8,1-1.7,1.9-2.7,2.5s-2.1,1-3.3,1
		c-1.7,0-3-0.8-3.8-2.3c-0.8-1.5-1.2-3.5-1.2-6c0-2.4,0.3-5,0.9-8.1c0.6-3,1.5-5.6,2.7-7.8s2.6-3.2,4.2-3.2c0.9,0,1.7,0.4,2.2,1.3
		c0.5,0.9,0.8,2.1,0.8,3.7c0,2.3-0.6,5-1.9,8s-3,6-5.2,9c0.1,0.8,0.4,1.4,0.7,1.7c0.3,0.3,0.7,0.5,1.2,0.5c0.8,0,1.5-0.2,2.1-0.7
		s1.4-1.2,2.3-2.3c0.2-0.3,0.5-0.4,0.8-0.4C134.5,31.5,134.7,31.6,134.8,31.9z M129.1,16c-0.6,1.6-1.1,3.6-1.5,6s-0.7,4.7-0.7,6.8
		c1.4-2.3,2.5-4.5,3.3-6.8c0.8-2.3,1.2-4.3,1.2-6.2c0-1.5-0.3-2.2-0.8-2.2C130.2,13.6,129.7,14.4,129.1,16z"/>
	<path class="st1" d="M136.8,37.4c-0.4-0.5-0.7-1.1-0.7-1.8c0-0.9,0.2-1.6,0.7-2.1c0.5-0.5,1.2-0.8,2.1-0.8c0.8,0,1.5,0.2,1.9,0.6
		c0.4,0.4,0.7,1,0.7,1.8c0,0.9-0.3,1.6-0.8,2.1c-0.5,0.5-1.2,0.8-2.1,0.8C137.9,38.1,137.2,37.9,136.8,37.4z"/>
	<path class="st1" d="M144.7,36.5c-1.1-1.1-1.6-2.5-1.6-4.2c0-1.6,0.3-2.9,0.9-4.1c0.6-1.2,1.4-2.1,2.4-2.7c1-0.6,2-1,3.1-1
		c1.1,0,1.9,0.3,2.5,0.9c0.6,0.6,0.9,1.4,0.9,2.4c0,0.8-0.2,1.5-0.5,2.1c-0.4,0.6-0.8,0.8-1.4,0.8c-0.4,0-0.7-0.1-0.9-0.3
		c-0.2-0.2-0.3-0.4-0.3-0.7c0-0.1,0-0.3,0.1-0.5c0-0.2,0.1-0.3,0.1-0.4c0.1-0.3,0.1-0.6,0.1-0.8s-0.1-0.4-0.2-0.6
		c-0.1-0.1-0.3-0.2-0.5-0.2c-0.4,0-0.9,0.2-1.2,0.6s-0.7,0.9-0.9,1.6c-0.2,0.7-0.3,1.4-0.3,2.2c0,2.2,1,3.4,2.9,3.4
		c0.8,0,1.6-0.3,2.6-0.8c0.9-0.5,1.8-1.3,2.7-2.4c0.2-0.3,0.5-0.4,0.8-0.4c0.3,0,0.4,0.1,0.6,0.3c0.1,0.2,0.2,0.6,0.2,1
		c0,0.7-0.2,1.3-0.6,1.8c-0.9,1.1-2,2-3.3,2.6c-1.3,0.6-2.5,0.9-3.7,0.9C147.2,38.1,145.8,37.6,144.7,36.5z"/>
	<path class="st1" d="M169.6,29.5c0.1,0.3,0.2,0.6,0.2,1c0,0.9-0.3,1.5-0.8,1.7c-1.2,0.4-2.4,0.6-3.8,0.7c-0.4,1.6-1.1,2.9-2.2,3.9
		c-1.1,1-2.3,1.5-3.7,1.5c-1.2,0-2.2-0.3-3-0.8c-0.8-0.6-1.4-1.3-1.9-2.2c-0.4-0.9-0.6-1.9-0.6-3c0-1.5,0.3-2.8,0.8-3.9
		s1.3-2,2.3-2.7s2.1-1,3.3-1c1.5,0,2.7,0.5,3.6,1.5c0.9,1,1.4,2.3,1.6,3.8c0.9-0.1,2-0.3,3.2-0.6c0.2,0,0.3-0.1,0.4-0.1
		C169.3,29.1,169.5,29.2,169.6,29.5z M161.2,34.3c0.5-0.5,0.8-1.2,0.9-2.2c-0.6-0.4-1.1-0.9-1.4-1.6c-0.3-0.7-0.5-1.4-0.5-2.1
		c0-0.3,0-0.6,0.1-0.9h-0.1c-0.8,0-1.4,0.4-1.9,1.1s-0.8,1.8-0.8,3.1c0,1.1,0.2,1.9,0.6,2.4s0.9,0.8,1.5,0.8
		C160.2,35.1,160.7,34.8,161.2,34.3z"/>
	<path class="st1" d="M167.9,37c-0.3-0.8-0.4-2-0.4-3.7c0-2.5,0.4-4.9,1.1-7.2c0.2-0.6,0.5-1,0.9-1.2c0.4-0.3,1-0.4,1.7-0.4
		c0.4,0,0.7,0,0.8,0.1c0.2,0.1,0.2,0.3,0.2,0.6c0,0.3-0.1,1-0.4,2.1c-0.2,0.8-0.3,1.4-0.5,2c-0.1,0.6-0.2,1.3-0.3,2.1
		c0.5-1.5,1.1-2.8,1.9-3.8s1.5-1.8,2.2-2.3c0.8-0.5,1.5-0.8,2.2-0.8s1.2,0.2,1.4,0.5s0.4,0.8,0.4,1.4c0,0.6-0.2,1.7-0.6,3.4
		c-0.2,0.7-0.3,1.2-0.3,1.6c1-2.4,2-4.1,3.2-5.2c1.2-1.1,2.3-1.6,3.3-1.6c1.3,0,1.9,0.6,1.9,1.9c0,0.8-0.2,2.1-0.6,4.1
		c-0.4,1.7-0.6,2.8-0.6,3.3c0,0.8,0.3,1.2,0.8,1.2c0.4,0,0.8-0.2,1.4-0.7c0.5-0.5,1.2-1.2,2.1-2.3c0.2-0.3,0.5-0.4,0.8-0.4
		c0.3,0,0.5,0.1,0.6,0.3c0.1,0.2,0.2,0.6,0.2,1c0,0.8-0.2,1.4-0.6,1.8c-0.8,1-1.7,1.9-2.7,2.5s-2,1-3.3,1c-1,0-1.7-0.3-2.2-0.9
		c-0.5-0.6-0.8-1.4-0.8-2.5c0-0.5,0.1-1.5,0.4-2.9c0.3-1.2,0.4-2.1,0.4-2.5c0-0.3-0.1-0.5-0.3-0.5c-0.3,0-0.6,0.3-1.1,1
		c-0.5,0.6-0.9,1.5-1.4,2.6c-0.5,1.1-0.8,2.2-1.1,3.4c-0.2,0.9-0.5,1.5-0.7,1.9c-0.3,0.3-0.7,0.5-1.3,0.5c-0.6,0-1.1-0.3-1.4-0.9
		s-0.5-1.3-0.5-2.2c0-0.7,0.1-1.8,0.3-3.2c0.2-1.2,0.2-2,0.2-2.4c0-0.3-0.1-0.5-0.3-0.5c-0.3,0-0.7,0.3-1.1,1
		c-0.4,0.7-0.9,1.6-1.3,2.7c-0.4,1.1-0.7,2.1-1,3.2c-0.2,0.9-0.5,1.5-0.7,1.8c-0.3,0.3-0.7,0.5-1.3,0.5
		C168.7,38.1,168.2,37.8,167.9,37z"/>
</g>
</svg>
