<svg id="Icon_feather-settings" data-name="Icon feather-settings" xmlns="http://www.w3.org/2000/svg" width="35" height="35" viewBox="0 0 35 35">
  <path id="Path_2" data-name="Path 2" d="M22.5,18A4.5,4.5,0,1,1,18,13.5,4.5,4.5,0,0,1,22.5,18Z" transform="translate(-0.5 -0.5)" fill="none" stroke="#c7c7c7" stroke-linecap="round" stroke-linejoin="round" stroke-width="3"/>
  <path id="Path_3" data-name="Path 3" d="M28.264,21.864a2.4,2.4,0,0,0,.48,2.647l.087.087a2.911,2.911,0,1,1-4.116,4.116l-.087-.087a2.419,2.419,0,0,0-4.1,1.716v.247a2.909,2.909,0,1,1-5.818,0V30.46a2.4,2.4,0,0,0-1.571-2.2,2.4,2.4,0,0,0-2.647.48l-.087.087a2.911,2.911,0,1,1-4.116-4.116l.087-.087a2.419,2.419,0,0,0-1.716-4.1H4.409a2.909,2.909,0,1,1,0-5.818H4.54a2.4,2.4,0,0,0,2.2-1.571,2.4,2.4,0,0,0-.48-2.647L6.169,10.4a2.911,2.911,0,1,1,4.116-4.116l.087.087a2.4,2.4,0,0,0,2.647.48h.116a2.4,2.4,0,0,0,1.455-2.2V4.409a2.909,2.909,0,1,1,5.818,0V4.54a2.419,2.419,0,0,0,4.1,1.716l.087-.087a2.911,2.911,0,1,1,4.116,4.116l-.087.087a2.4,2.4,0,0,0-.48,2.647v.116a2.4,2.4,0,0,0,2.2,1.455h.247a2.909,2.909,0,1,1,0,5.818H30.46a2.4,2.4,0,0,0-2.2,1.455Z" transform="translate(0 0)" fill="none" stroke="#c7c7c7" stroke-linecap="round" stroke-linejoin="round" stroke-width="3"/>
</svg>
